<svg width="1637" height="306" viewBox="0 0 1637 306" fill="none" xmlns="http://www.w3.org/2000/svg">
<path d="M989.598 279.342C982.635 279.342 976.786 273.493 976.786 266.53C976.786 259.566 982.635 253.717 989.598 253.717C996.562 253.717 1002.41 259.566 1002.41 266.53C1002.41 273.493 996.562 279.342 989.598 279.342Z" fill="white"/>
<path d="M1135.97 276H1011.74L1012.29 272.657C1031.24 272.657 1034.58 262.073 1039.03 241.461L1067.45 107.763C1071.9 87.1513 1073.02 76.5668 1054.08 76.5668L1054.63 73.2244H1110.34L1109.78 76.5668C1090.84 76.5668 1087.5 87.1513 1083.04 107.763L1051.85 254.831C1049.9 263.744 1051.85 268.201 1060.2 268.201H1089.73C1119.81 268.201 1125.94 265.137 1147.94 232.269H1151.29L1135.97 276Z" fill="white"/>
<path d="M1204.64 101.078C1197.95 101.078 1192.38 95.5074 1192.38 88.8225C1192.38 82.1376 1197.95 76.5668 1204.64 76.5668C1211.32 76.5668 1216.89 82.1376 1216.89 88.8225C1216.89 95.5074 1211.32 101.078 1204.64 101.078ZM1173.44 279.342C1162.3 279.342 1164.25 264.301 1166.75 253.16L1187.37 156.229C1189.04 148.43 1190.71 141.745 1185.7 141.745C1181.52 141.745 1174.83 150.936 1165.64 165.142L1161.18 162.356C1174 138.402 1185.42 126.704 1195.44 126.704C1204.91 126.704 1205.47 136.731 1202.13 152.886L1181.52 249.817C1180.68 253.717 1178.45 262.909 1183.47 262.909C1189.04 262.909 1199.62 249.539 1208.81 234.776L1213.27 237.562C1199.34 263.744 1184.58 279.342 1173.44 279.342Z" fill="white"/>
<path d="M1250.27 279.342C1227.7 279.342 1226.31 253.717 1232.44 224.47L1246.65 156.229C1248.04 149.822 1250.27 141.745 1245.53 141.745C1241.07 141.745 1234.39 150.936 1225.2 165.142L1220.74 162.356C1233.55 138.402 1244.97 126.704 1255.28 126.704C1266.98 126.704 1263.36 145.087 1261.69 152.886L1246.09 226.42C1241.07 250.096 1243.02 267.644 1259.18 267.644C1288.7 267.644 1320.74 203.302 1320.74 165.977C1320.74 152.329 1316.84 138.402 1307.92 132.831V129.489L1321.85 126.704C1329.93 132.831 1333.55 143.416 1333.55 155.393C1333.55 196.895 1294 279.342 1250.27 279.342Z" fill="white"/>
<path d="M1385.25 101.078C1378.57 101.078 1372.99 95.5074 1372.99 88.8225C1372.99 82.1376 1378.57 76.5668 1385.25 76.5668C1391.94 76.5668 1397.51 82.1376 1397.51 88.8225C1397.51 95.5074 1391.94 101.078 1385.25 101.078ZM1354.05 279.342C1342.91 279.342 1344.86 264.301 1347.37 253.16L1367.98 156.229C1369.65 148.43 1371.32 141.745 1366.31 141.745C1362.13 141.745 1355.45 150.936 1346.26 165.142L1341.8 162.356C1354.61 138.402 1366.03 126.704 1376.06 126.704C1385.53 126.704 1386.09 136.731 1382.74 152.886L1362.13 249.817C1361.3 253.717 1359.07 262.909 1364.08 262.909C1369.65 262.909 1380.24 249.539 1389.43 234.776L1393.89 237.562C1379.96 263.744 1365.2 279.342 1354.05 279.342Z" fill="white"/>
<path d="M1536.08 238.09L1539 241C1525.07 267.183 1507.48 279.342 1497.17 279.342C1487.15 279.342 1485.75 269.872 1489.65 253.16L1506.64 179.626C1511.66 157.9 1515 140.073 1499.68 140.073C1471.83 140.073 1432.27 203.302 1416.68 276H1402.75L1428.1 156.229C1429.77 148.43 1431.44 141.745 1426.42 141.745C1422.25 141.745 1415.56 150.936 1406.37 165.142L1401.91 162.356C1414.73 138.402 1426.15 126.704 1436.17 126.704C1445.64 126.704 1446.2 136.731 1442.86 152.886L1430.04 213.05C1451.21 161.242 1480.46 126.704 1507.48 126.704C1531.15 126.704 1526.98 152.608 1520.29 181.576L1504.69 249.817C1503.02 257.616 1501.07 264.301 1505.81 264.301C1511.1 264.301 1524.58 251.59 1536.08 238.09Z" fill="white"/>
<path d="M1603.78 130.879L1636.96 128.114L1631.82 138.978L1611.48 137.2C1615.43 141.941 1617.8 148.262 1617.8 155.965C1617.8 177.89 1600.81 196.853 1578.1 197.248C1568.02 200.408 1564.27 202.384 1564.27 206.334C1564.27 209.099 1566.05 211.075 1570 212.062L1589.55 217.396C1607.13 222.334 1621.36 227.074 1621.36 241.494C1621.36 263.419 1593.9 280.406 1561.11 280.406C1538.2 280.406 1527.73 270.727 1527.73 256.505C1527.73 245.642 1534.25 236.358 1551.63 227.667L1554.39 226.482L1558.94 227.469C1546.1 233.79 1540.57 243.074 1540.57 252.16C1540.57 264.407 1550.64 272.505 1571.18 272.505C1591.92 272.505 1609.5 262.826 1609.5 250.382C1609.5 239.321 1598.05 235.37 1586 232.21L1561.7 225.692C1554.79 223.716 1549.26 219.963 1549.26 213.247C1549.26 204.556 1557.95 199.223 1568.42 196.26C1554.99 193.1 1546.69 182.829 1546.69 168.212C1546.69 145.891 1564.67 126.731 1588.17 127.126C1594.1 127.324 1599.43 128.509 1603.78 130.879ZM1576.52 192.112C1593.7 192.112 1602.99 168.212 1602.99 151.027C1602.99 138.583 1598.05 132.262 1588.17 132.262C1570.99 132.262 1561.51 155.965 1561.51 173.347C1561.51 185.594 1566.64 192.112 1576.52 192.112Z" fill="white"/>
<path d="M5.57076 73.2245H67.1276C106.68 73.2245 132.584 94.3933 132.584 129.489C132.584 165.42 105.844 188.539 69.913 188.539C57.3788 188.539 47.0729 185.754 41.2236 183.525V241.461C41.2236 262.073 43.4519 272.658 62.3925 272.658V276H5.57076V272.658C24.5113 272.658 25.6255 262.073 25.6255 241.461V107.763C25.6255 87.1514 24.5113 76.5669 5.57076 76.5669V73.2245ZM63.5066 180.183C96.0956 180.183 115.315 163.471 115.315 129.489C115.315 97.1787 98.0453 81.0235 65.7349 81.0235H51.808C45.1231 81.0235 41.2236 84.366 41.2236 91.0509V167.37C41.2236 170.713 41.2236 180.183 63.5066 180.183ZM203.233 70.9962L261.447 240.347C269.803 264.301 274.817 271.543 286.794 272.658V276H233.315V272.658C248.913 271.543 253.648 265.694 246.963 246.196L232.479 203.859H161.452L153.931 226.42C142.79 259.288 140.004 271.543 160.616 272.658V276H115.772V272.658C126.356 271.543 133.32 257.895 144.74 224.192L197.105 70.9962H203.233ZM196.548 99.6856L164.237 195.503H229.415L196.548 99.6856ZM344.984 276H289.277V272.658C308.217 272.658 309.331 262.073 309.331 241.461V107.763C309.331 87.1514 308.217 76.5669 289.277 76.5669V73.2245H344.984V76.5669C326.044 76.5669 324.93 87.1514 324.93 107.763V241.461C324.93 262.073 326.044 272.658 344.984 272.658V276ZM411.62 279.342C394.908 279.342 372.068 274.05 359.534 265.973L358.141 227.813H361.483C371.232 258.174 390.73 271.543 413.013 271.543C436.689 271.543 458.136 256.502 458.136 229.484C458.136 203.859 439.752 192.996 415.241 180.462L401.593 173.498C380.702 162.914 362.04 150.101 362.04 122.526C362.04 92.4436 385.159 69.882 416.634 69.882C431.953 69.882 451.451 75.1742 464.821 82.9733V111.941H461.478C452.565 87.4299 435.853 77.6811 416.077 77.6811C391.565 77.6811 376.246 92.7221 376.246 115.562C376.246 140.352 393.794 150.658 409.67 158.736L423.319 165.699C447.83 178.233 472.341 191.046 472.341 223.635C472.341 256.502 446.716 279.342 411.62 279.342ZM556.301 70.9962L614.515 240.347C622.871 264.301 627.885 271.543 639.862 272.658V276H586.383V272.658C601.981 271.543 606.716 265.694 600.031 246.196L585.547 203.859H514.52L507 226.42C495.858 259.288 493.073 271.543 513.685 272.658V276H468.84V272.658C479.424 271.543 486.388 257.895 497.808 224.192L550.173 70.9962H556.301ZM549.616 99.6856L517.306 195.503H582.483L549.616 99.6856ZM760.167 76.5669V73.2245H811.418V76.5669C795.82 76.5669 793.034 93.2792 793.034 122.247V278.228H787.463L672.149 94.9504V233.384C672.149 256.502 674.934 272.658 693.039 272.658V276H639.838V272.658C657.108 272.658 662.678 256.502 662.678 233.384V104.978C662.678 86.8728 655.994 78.7952 639.838 76.5669V73.2245H676.884L783.564 242.854V122.247C783.564 93.2792 778.55 76.5669 760.167 76.5669ZM893.049 70.9962L951.263 240.347C959.619 264.301 964.633 271.543 976.61 272.658V276H923.131V272.658C938.729 271.543 943.464 265.694 936.779 246.196L922.295 203.859H851.268L843.748 226.42C832.606 259.288 829.821 271.543 850.432 272.658V276H805.588V272.658C816.172 271.543 823.136 257.895 834.556 224.192L886.921 70.9962H893.049ZM886.364 99.6856L854.053 195.503H919.231L886.364 99.6856Z" fill="white"/>
</svg>
